PathFileType        4      (X/Y/Z)      Static.trc         
DataRate	CameraRate	NumFrames	NumMarkers	Units	OrigDataRate	OrigDataStartFrame	OrigNumFrames
100.0	100.0	10	37	mm	100.0	101	267
Frame#	Time	T2			T10			MANU			LASI			RASI			SACR			LTHI			LKAX			LKD1			LKD2			LKNE			LTIB			LANK			LMED			LHEE			LTOE			LD1M			LD5M			RTHI			RKAX			RKD1			RKD2			RKNE			RTIB			RANK			RMED			RHEE			RTOE			RD1M			RD5M			RHJC			LHJC			RKJC			LKJC			MASI			RAJC			LAJC			
		X1	Y1	Z1	X2	Y2	Z2	X3	Y3	Z3	X4	Y4	Z4	X5	Y5	Z5	X6	Y6	Z6	X7	Y7	Z7	X8	Y8	Z8	X9	Y9	Z9	X10	Y10	Z10	X11	Y11	Z11	X12	Y12	Z12	X13	Y13	Z13	X14	Y14	Z14	X15	Y15	Z15	X16	Y16	Z16	X17	Y17	Z17	X18	Y18	Z18	X19	Y19	Z19	X20	Y20	Z20	X21	Y21	Z21	X22	Y22	Z22	X23	Y23	Z23	X24	Y24	Z24	X25	Y25	Z25	X26	Y26	Z26	X27	Y27	Z27	X28	Y28	Z28	X29	Y29	Z29	X30	Y30	Z30	X31	Y31	Z31	X32	Y32	Z32	X33	Y33	Z33	X34	Y34	Z34	X35	Y35	Z35	X36	Y36	Z36	X37	Y37	Z37	
101	1.0	277.06454	1103.02474	-11.84891	287.36148	918.35415	-6.08363	389.51175	1083.6832	-0.48702	437.73538	722.16332	-76.23441	435.43922	737.18837	96.11679	298.83401	769.03539	1.01977	394.80853	431.06578	-156.90336	389.06726	380.60763	-217.60541	480.38617	390.61166	-122.80066	410.74982	279.23067	-137.58579	389.47098	368.94611	-125.4207	319.74466	159.61182	-183.67384	295.20986	68.7038	-145.71373	316.15047	71.43622	-71.74049	245.56432	20.65657	-109.71519	421.85145	30.59228	-135.12453	416.87665	16.39821	-84.95426	381.53509	17.23273	-176.33099	404.40857	447.25224	167.76431	408.23401	355.60676	227.549	483.03125	412.83862	123.09861	454.72688	283.90964	121.4876	401.65393	361.45298	129.55966	307.93229	148.59321	156.07004	293.61024	62.22824	111.88473	322.00057	69.39933	39.31463	250.92012	19.64669	68.22894	423.74878	28.5663	108.20484	414.11925	14.02009	52.73589	383.98959	15.39793	147.47437	375.64321	687.41983	77.45958	377.35243	676.23543	-50.83577	398.47704	364.27555	82.25014	389.67518	363.04759	-78.79275	436.5873	729.67585	9.94119	305.35727	57.75532	75.42011	303.4123	62.15961	-109.53534	
102	1.01	277.37344	1103.09108	-11.769	287.49004	918.44428	-6.02054	389.82949	1083.72536	-0.43683	437.61252	722.11334	-76.23358	435.41073	737.14065	96.11544	298.76481	769.07274	1.09833	394.8024	431.06413	-156.87534	389.2765	380.62195	-217.5914	480.47163	390.61845	-122.66987	410.85256	279.23979	-137.54931	389.56048	368.95538	-125.40772	319.91788	159.57288	-183.66747	295.28803	68.73976	-145.74439	316.24724	71.4736	-71.73324	245.59294	20.73106	-109.70951	421.86854	30.58013	-135.15194	416.90939	16.41935	-84.96829	381.54475	17.21125	-176.35406	404.47025	447.24255	167.79156	408.29074	355.58682	227.57802	483.08452	412.80875	123.12039	454.76434	283.89172	121.50546	401.70237	361.43808	129.58871	307.96569	148.58328	156.09123	293.62057	62.23161	111.89636	322.00634	69.40527	39.32399	250.92225	19.66063	68.23165	423.74948	28.56642	108.20859	414.12252	14.02047	52.74044	383.99207	15.39484	147.48155	375.57333	687.40927	77.48858	377.2123	676.22316	-50.80541	398.52151	364.26307	82.27961	389.70412	363.05426	-78.77987	436.51163	729.62699	9.94093	305.36434	57.76044	75.4301	303.50135	62.19709	-109.5477	
103	1.02	277.67925	1103.1601	-11.67525	287.62091	918.538	-5.93999	390.13869	1083.77775	-0.38408	437.46911	722.065	-76.23989	435.38274	737.09435	96.10465	298.67957	769.12911	1.19078	394.77295	431.06814	-156.84569	389.51059	380.64365	-217.57503	480.55433	390.63777	-122.50412	410.95895	279.25481	-137.5055	389.64563	368.97122	-125.39071	320.08814	159.53275	-183.65897	295.35906	68.77284	-145.77203	316.34677	71.51626	-71.71884	245.61893	20.80062	-109.70504	421.88324	30.56852	-135.17974	416.9435	16.44162	-84.98251	381.55327	17.18953	-176.37512	404.52023	447.23807	167.82168	408.33377	355.57812	227.61211	483.11242	412.80353	123.14478	454.80237	283.88995	121.53025	401.73516	361.43006	129.62216	308.00214	148.56923	156.11881	293.63058	62.23504	111.9113	322.00739	69.41248	39.33553	250.92384	19.6719	68.23777	423.7502	28.56789	108.21261	414.12077	14.01854	52.7455	383.99638	15.39386	147.49034	375.49481	687.40773	77.51515	377.04788	676.22007	-50.77599	398.5494	364.25533	82.3134	389.71394	363.06719	-78.76306	436.42593	729.57967	9.93238	305.36926	57.76611	75.44279	303.58867	62.23564	-109.55496	
104	1.03	277.98133	1103.23511	-11.56857	287.75081	918.6371	-5.84379	390.44136	1083.83851	-0.3305	437.3067	722.01874	-76.25374	435.35254	737.04919	96.08491	298.57699	769.2033	1.29474	394.70799	431.07727	-156.81581	389.75136	380.66969	-217.5566	480.6207	390.67054	-122.30883	411.05731	279.27436	-137.45489	389.71325	368.9919	-125.3701	320.24606	159.4919	-183.64776	295.4203	68.79975	-145.79636	316.43526	71.55581	-71.70595	245.64086	20.86003	-109.70163	421.89492	30.55758	-135.20892	416.97672	16.46508	-84.99746	381.56054	17.16823	-176.3949	404.55384	447.23796	167.85316	408.37145	355.57676	227.64818	483.11438	412.82707	123.16691	454.84786	283.90543	121.5535	401.75485	361.42762	129.65719	308.04138	148.54974	156.14972	293.64056	62.23725	111.92752	322.00458	69.41983	39.34747	250.92561	19.6795	68.24706	423.75109	28.56927	108.21524	414.1158	14.01432	52.74859	384.00255	15.39377	147.49852	375.40577	687.41414	77.53806	376.86042	676.22561	-50.74931	398.56049	364.25231	82.34897	389.69397	363.08535	-78.74273	436.32962	729.53397	9.91558	305.37265	57.7711	75.45628	303.66609	62.26927	-109.56138	
105	1.04	278.27862	1103.31962	-11.44972	287.87553	918.74416	-5.73386	390.73937	1083.9062	-0.27763	437.12747	721.97588	-76.27521	435.31701	737.00578	96.05848	298.45813	769.29184	1.40669	394.59603	431.09036	-156.78536	389.97671	380.69562	-217.5368	480.65498	390.71471	-122.09494	411.13394	279.29649	-137.39797	389.74951	369.01469	-125.3475	320.38485	159.45062	-183.63372	295.46999	68.81822	-145.81766	316.49962	71.58389	-71.70338	245.65846	20.9058	-109.69895	421.90363	30.54805	-135.23963	417.00572	16.48943	-85.01387	381.56696	17.14817	-176.41434	404.56766	447.24199	167.88503	408.41074	355.57737	227.68333	483.09143	412.87862	123.1822	454.90309	283.93725	121.5674	401.76338	361.42895	129.6915	308.0811	148.52492	156.18065	293.65032	62.23664	111.94303	321.99899	69.42652	39.35808	250.92776	19.68307	68.2585	423.75212	28.56925	108.21529	414.10947	14.0086	52.74778	384.00995	15.39313	147.5042	375.30532	687.4267	77.55732	376.65301	676.23853	-50.7269	398.55425	364.25389	82.3843	389.63459	363.10677	-78.72044	436.22224	729.49083	9.89163	305.37496	57.77418	75.46874	303.72626	62.2926	-109.5716	
106	1.05	278.56853	1103.4171	-11.31862	287.98943	918.8625	-5.61168	391.03294	1083.97878	-0.22552	436.93296	721.93731	-76.30239	435.27316	736.96458	96.02988	298.32787	769.38941	1.52133	394.42983	431.10589	-156.75186	390.16334	380.71673	-217.51573	480.64308	390.76558	-121.8771	411.1763	279.3194	-137.33445	389.74314	369.03647	-125.32416	320.50001	159.40923	-183.61646	295.50712	68.82783	-145.83587	316.53635	71.59784	-71.71175	245.67135	20.93646	-109.69721	421.90963	30.54045	-135.27044	417.02712	16.51344	-85.03154	381.57236	17.12923	-176.43278	404.56038	447.24981	167.9178	408.45549	355.57433	227.7164	483.04668	412.95148	123.18904	454.9642	283.98164	121.56822	401.76178	361.43185	129.72505	308.1177	148.49631	156.21021	293.65938	62.23194	111.95774	321.99106	69.43229	39.36751	250.92976	19.68306	68.27085	423.75292	28.56714	108.21336	414.10337	14.00309	52.74294	384.01735	15.39049	147.50759	375.19353	687.44311	77.57554	376.42908	676.25687	-50.70789	398.53038	364.25959	82.41953	389.53062	363.12906	-78.69737	436.10306	729.45094	9.86375	305.37618	57.77457	75.48019	303.767	62.3041	-109.58587	
107	1.06	278.84664	1103.52987	-11.17436	288.0867	918.99507	-5.47806	391.32078	1084.05401	-0.17326	436.72371	721.90355	-76.33199	435.2198	736.92636	96.00381	298.19398	769.49049	1.63244	394.21048	431.12309	-156.71309	390.29011	380.73068	-217.49341	480.57732	390.8193	-121.67208	411.17651	279.34284	-137.2653	389.68845	369.05574	-125.30076	320.58911	159.36901	-183.596	295.53192	68.83029	-145.85076	316.55503	71.60379	-71.72164	245.67854	20.95267	-109.69684	421.91317	30.53525	-135.29998	417.0393	16.5361	-85.05011	381.57598	17.11114	-176.4489	404.5332	447.26119	167.95255	408.50593	355.56421	227.74791	482.98544	413.03532	123.18847	455.02307	284.03304	121.55594	401.75056	361.43512	129.75905	308.14772	148.46696	156.23871	293.66685	62.22367	111.97314	321.98063	69.43813	39.37704	250.93062	19.68059	68.28341	423.75299	28.56339	108.21079	414.0984	13.99995	52.73603	384.02379	15.38542	147.51014	375.0723	687.46188	77.59685	376.1918	676.27897	-50.68907	398.48948	364.26924	82.45595	389.38417	363.15111	-78.67413	435.97176	729.41495	9.83591	305.37576	57.77306	75.49201	303.79328	62.30782	-109.59923	
108	1.07	279.10907	1103.65773	-11.01611	288.16357	919.14288	-5.33304	391.60096	1084.13025	-0.12027	436.4998	721.87501	-76.3611	435.15799	736.89267	95.98289	298.06301	769.59103	1.73586	393.95054	431.14291	-156.67082	390.34161	380.73933	-217.47045	480.45994	390.87647	-121.49728	411.1327	279.36858	-137.19503	389.58691	369.07433	-125.27791	320.65173	159.33257	-183.57359	295.54574	68.82881	-145.86237	316.5708	71.61219	-71.72147	245.6795	20.95668	-109.69768	421.91459	30.53346	-135.32833	417.04341	16.55764	-85.07008	381.57726	17.09459	-176.46232	404.48979	447.27661	167.98965	408.55937	355.54732	227.77897	482.91404	413.11971	123.18254	455.07084	284.08588	121.53261	401.73	361.43903	129.7943	308.1688	148.44055	156.26672	293.67109	62.21428	111.99019	321.96783	69.4459	39.38766	250.92935	19.67708	68.29646	423.75215	28.55963	108.20828	414.09433	14.00055	52.73011	384.02896	15.37929	147.51276	374.94495	687.48302	77.6247	375.94379	676.30399	-50.66677	398.43326	364.28313	82.49427	389.20521	363.17472	-78.65122	435.8289	729.38384	9.8109	305.37289	57.77186	75.50518	303.8133	62.31074	-109.60572	
109	1.08	279.35434	1103.79805	-10.84404	288.21825	919.30452	-5.17625	391.87147	1084.2061	-0.06629	436.26147	721.8509	-76.3877	435.08906	736.86408	95.96739	297.93655	769.68883	1.83117	393.67207	431.16724	-156.63108	390.31041	380.74796	-217.44759	480.30224	390.94188	-121.36736	411.04791	279.39907	-137.13063	389.446	369.09686	-125.25569	320.68914	159.30223	-183.55107	295.55016	68.82636	-145.87072	316.59153	71.6287	-71.70751	245.67492	20.95169	-109.69889	421.9144	30.5359	-135.35587	417.04283	16.57891	-85.09163	381.57593	17.0806	-176.47315	404.43587	447.29656	168.02877	408.61097	355.52667	227.81069	482.83835	413.19657	123.17401	455.10068	284.13553	121.50229	401.70048	361.4445	129.83101	308.18053	148.41941	156.29475	293.67051	62.20607	112.00861	321.95339	69.45662	39.40022	250.9255	19.67403	68.31065	423.75034	28.5574	108.20634	414.09013	14.00473	52.72776	384.03272	15.37433	147.51592	374.81363	687.5067	77.66048	375.68635	676.33109	-50.63847	398.36467	364.30114	82.53448	389.00882	363.20419	-78.6286	435.67527	729.35749	9.78984	305.36703	57.77266	75.52	303.83152	62.31716	-109.60345	
110	1.09	279.58197	1103.94689	-10.65928	288.24965	919.47636	-5.0077	392.13051	1084.27982	-0.01091	436.00945	721.82854	-76.41057	435.0126	736.83871	95.95592	297.81115	769.78293	1.92069	393.39757	431.1965	-156.59924	390.19801	380.76298	-217.42509	480.11826	391.01975	-121.28939	410.92895	279.43601	-137.07896	389.27581	369.12711	-125.2335	320.70419	159.27857	-183.52993	295.54675	68.82414	-145.87589	316.61451	71.65073	-71.68513	245.66642	20.94133	-109.69943	421.91306	30.54197	-135.3819	417.04133	16.60029	-85.11348	381.57211	17.06928	-176.48099	404.37782	447.31995	168.06929	408.65458	355.50618	227.8437	482.76288	413.26139	123.16639	455.10954	284.17901	121.47104	401.66293	361.4522	129.86895	308.18462	148.40321	156.32346	293.6649	62.1992	112.02752	321.93797	69.46939	39.41569	250.9195	19.6722	68.32626	423.74747	28.557	108.20592	414.08481	14.01104	52.72993	384.03483	15.37184	147.52025	374.6774	687.53196	77.70302	375.41943	676.35865	-50.60359	398.28802	364.32238	82.57601	388.80939	363.24203	-78.60574	435.51103	729.33363	9.77267	305.35829	57.77512	75.53654	303.84696	62.32631	-109.59523	
